G04 EAGLE Gerber X2 export*
%TF.Part,Single*%
%TF.FileFunction,Copper,L2,Bot,Mixed*%
%TF.FilePolarity,Positive*%
%TF.GenerationSoftware,Autodesk,EAGLE,8.6.0*%
%TF.CreationDate,2018-02-08T23:22:40Z*%
G75*
%MOMM*%
%FSLAX34Y34*%
%LPD*%
%AMOC8*
5,1,8,0,0,1.08239X$1,22.5*%
G01*
%ADD10P,1.429621X8X202.500000*%
%ADD11P,1.429621X8X22.500000*%
%ADD12P,1.429621X8X112.500000*%
%ADD13C,1.308000*%
%ADD14C,3.216000*%
%ADD15C,1.408000*%
%ADD16P,1.814519X8X292.500000*%
%ADD17P,1.814519X8X112.500000*%
%ADD18P,1.814519X8X22.500000*%
%ADD19P,1.814519X8X202.500000*%
%ADD20C,1.778000*%
%ADD21C,1.879600*%
%ADD22C,0.127000*%


D10*
X749300Y304800D03*
X698500Y304800D03*
D11*
X774700Y139700D03*
X825500Y139700D03*
X876300Y228600D03*
X927100Y228600D03*
D12*
X685800Y101600D03*
X685800Y152400D03*
X444500Y101600D03*
X444500Y152400D03*
D13*
X939800Y120840D02*
X939800Y107760D01*
X914400Y107760D02*
X914400Y120840D01*
D14*
X965200Y63500D03*
X863600Y63500D03*
D15*
X660400Y287000D03*
X660400Y221000D03*
X520700Y17800D03*
X520700Y83800D03*
X426700Y152400D03*
X360700Y152400D03*
D16*
X762000Y76200D03*
X762000Y25400D03*
X825500Y76200D03*
X825500Y25400D03*
D17*
X796925Y63500D03*
X796925Y114300D03*
D18*
X800100Y165100D03*
X850900Y165100D03*
D16*
X736600Y76200D03*
X736600Y25400D03*
D19*
X711200Y203200D03*
X660400Y203200D03*
D16*
X711200Y127000D03*
X711200Y76200D03*
D11*
X812800Y228600D03*
X838200Y254000D03*
X838200Y228600D03*
X812800Y254000D03*
D12*
X673100Y50800D03*
X647700Y76200D03*
X673100Y76200D03*
X647700Y50800D03*
D20*
X495300Y101600D03*
X596900Y177800D03*
X571500Y177800D03*
X520700Y101600D03*
D21*
X393700Y38100D03*
X406400Y19050D03*
X419100Y38100D03*
D22*
X673100Y63500D02*
X673100Y76200D01*
M02*
