M48
;GenerationSoftware,Autodesk,EAGLE,8.6.0*%
;CreationDate,2018-02-08T23:22:39Z*%
FMAT,2
ICI,OFF
METRIC,TZ,000.000
T7C0.350
T6C0.550
T5C0.600
T4C0.800
T3C0.813
T2C0.900
T1C2.200
%
G90
M71
T1
X96520Y6350
X86360Y6350
T2
X66040Y28700
X66040Y22100
X52070Y1780
X52070Y8380
X42670Y15240
X36070Y15240
T3
X77470Y13970
X64770Y7620
X67310Y7620
X64770Y5080
X74930Y30480
X69850Y30480
X44450Y10160
X82550Y13970
X87630Y22860
X92710Y22860
X68580Y10160
X68580Y15240
X41910Y3810
X44450Y15240
X39370Y3810
X40640Y1905
X76200Y7620
X76200Y2540
X82550Y7620
X82550Y2540
X79693Y6350
X79693Y11430
X80010Y16510
X85090Y16510
X73660Y7620
X73660Y2540
X71120Y20320
X66040Y20320
X71120Y12700
X71120Y7620
X81280Y22860
X83820Y25400
X83820Y22860
X81280Y25400
X67310Y5080
T4
X93980Y11430
X91440Y11430
T5
X52070Y10160
X59690Y17780
X57150Y17780
X49530Y10160
T6
X86360Y6350
X96520Y6350
T7
X31750Y6350
X31750Y3810
M30