G04 EAGLE Gerber X2 export*
%TF.Part,Single*%
%TF.FileFunction,Profile,NP*%
%TF.FilePolarity,Positive*%
%TF.GenerationSoftware,Autodesk,EAGLE,8.6.0*%
%TF.CreationDate,2018-02-08T23:22:40Z*%
G75*
%MOMM*%
%FSLAX34Y34*%
%LPD*%
%AMOC8*
5,1,8,0,0,1.08239X$1,22.5*%
G01*
%ADD10C,0.254000*%


D10*
X0Y0D02*
X1000000Y0D01*
X1000000Y800000D01*
X0Y800000D01*
X0Y0D01*
X319250Y37928D02*
X319183Y37590D01*
X319051Y37271D01*
X318859Y36984D01*
X318616Y36741D01*
X318329Y36549D01*
X318010Y36417D01*
X317672Y36350D01*
X317328Y36350D01*
X316990Y36417D01*
X316671Y36549D01*
X316384Y36741D01*
X316141Y36984D01*
X315949Y37271D01*
X315817Y37590D01*
X315750Y37928D01*
X315750Y38272D01*
X315817Y38610D01*
X315949Y38929D01*
X316141Y39216D01*
X316384Y39459D01*
X316671Y39651D01*
X316990Y39783D01*
X317328Y39850D01*
X317672Y39850D01*
X318010Y39783D01*
X318329Y39651D01*
X318616Y39459D01*
X318859Y39216D01*
X319051Y38929D01*
X319183Y38610D01*
X319250Y38272D01*
X319250Y37928D01*
X319250Y63328D02*
X319183Y62990D01*
X319051Y62671D01*
X318859Y62384D01*
X318616Y62141D01*
X318329Y61949D01*
X318010Y61817D01*
X317672Y61750D01*
X317328Y61750D01*
X316990Y61817D01*
X316671Y61949D01*
X316384Y62141D01*
X316141Y62384D01*
X315949Y62671D01*
X315817Y62990D01*
X315750Y63328D01*
X315750Y63672D01*
X315817Y64010D01*
X315949Y64329D01*
X316141Y64616D01*
X316384Y64859D01*
X316671Y65051D01*
X316990Y65183D01*
X317328Y65250D01*
X317672Y65250D01*
X318010Y65183D01*
X318329Y65051D01*
X318616Y64859D01*
X318859Y64616D01*
X319051Y64329D01*
X319183Y64010D01*
X319250Y63672D01*
X319250Y63328D01*
X866350Y63284D02*
X866282Y62856D01*
X866149Y62444D01*
X865952Y62059D01*
X865698Y61709D01*
X865392Y61402D01*
X865041Y61148D01*
X864656Y60951D01*
X864244Y60818D01*
X863816Y60750D01*
X863384Y60750D01*
X862956Y60818D01*
X862544Y60951D01*
X862159Y61148D01*
X861809Y61402D01*
X861502Y61709D01*
X861248Y62059D01*
X861051Y62444D01*
X860918Y62856D01*
X860850Y63284D01*
X860850Y63716D01*
X860918Y64144D01*
X861051Y64556D01*
X861248Y64941D01*
X861502Y65292D01*
X861809Y65598D01*
X862159Y65852D01*
X862544Y66049D01*
X862956Y66182D01*
X863384Y66250D01*
X863816Y66250D01*
X864244Y66182D01*
X864656Y66049D01*
X865041Y65852D01*
X865392Y65598D01*
X865698Y65292D01*
X865952Y64941D01*
X866149Y64556D01*
X866282Y64144D01*
X866350Y63716D01*
X866350Y63284D01*
X967950Y63284D02*
X967882Y62856D01*
X967749Y62444D01*
X967552Y62059D01*
X967298Y61709D01*
X966992Y61402D01*
X966641Y61148D01*
X966256Y60951D01*
X965844Y60818D01*
X965416Y60750D01*
X964984Y60750D01*
X964556Y60818D01*
X964144Y60951D01*
X963759Y61148D01*
X963409Y61402D01*
X963102Y61709D01*
X962848Y62059D01*
X962651Y62444D01*
X962518Y62856D01*
X962450Y63284D01*
X962450Y63716D01*
X962518Y64144D01*
X962651Y64556D01*
X962848Y64941D01*
X963102Y65292D01*
X963409Y65598D01*
X963759Y65852D01*
X964144Y66049D01*
X964556Y66182D01*
X964984Y66250D01*
X965416Y66250D01*
X965844Y66182D01*
X966256Y66049D01*
X966641Y65852D01*
X966992Y65598D01*
X967298Y65292D01*
X967552Y64941D01*
X967749Y64556D01*
X967882Y64144D01*
X967950Y63716D01*
X967950Y63284D01*
X319250Y37928D02*
X319183Y37590D01*
X319051Y37271D01*
X318859Y36984D01*
X318616Y36741D01*
X318329Y36549D01*
X318010Y36417D01*
X317672Y36350D01*
X317328Y36350D01*
X316990Y36417D01*
X316671Y36549D01*
X316384Y36741D01*
X316141Y36984D01*
X315949Y37271D01*
X315817Y37590D01*
X315750Y37928D01*
X315750Y38272D01*
X315817Y38610D01*
X315949Y38929D01*
X316141Y39216D01*
X316384Y39459D01*
X316671Y39651D01*
X316990Y39783D01*
X317328Y39850D01*
X317672Y39850D01*
X318010Y39783D01*
X318329Y39651D01*
X318616Y39459D01*
X318859Y39216D01*
X319051Y38929D01*
X319183Y38610D01*
X319250Y38272D01*
X319250Y37928D01*
X319250Y63328D02*
X319183Y62990D01*
X319051Y62671D01*
X318859Y62384D01*
X318616Y62141D01*
X318329Y61949D01*
X318010Y61817D01*
X317672Y61750D01*
X317328Y61750D01*
X316990Y61817D01*
X316671Y61949D01*
X316384Y62141D01*
X316141Y62384D01*
X315949Y62671D01*
X315817Y62990D01*
X315750Y63328D01*
X315750Y63672D01*
X315817Y64010D01*
X315949Y64329D01*
X316141Y64616D01*
X316384Y64859D01*
X316671Y65051D01*
X316990Y65183D01*
X317328Y65250D01*
X317672Y65250D01*
X318010Y65183D01*
X318329Y65051D01*
X318616Y64859D01*
X318859Y64616D01*
X319051Y64329D01*
X319183Y64010D01*
X319250Y63672D01*
X319250Y63328D01*
X866350Y63284D02*
X866282Y62856D01*
X866149Y62444D01*
X865952Y62059D01*
X865698Y61709D01*
X865392Y61402D01*
X865041Y61148D01*
X864656Y60951D01*
X864244Y60818D01*
X863816Y60750D01*
X863384Y60750D01*
X862956Y60818D01*
X862544Y60951D01*
X862159Y61148D01*
X861809Y61402D01*
X861502Y61709D01*
X861248Y62059D01*
X861051Y62444D01*
X860918Y62856D01*
X860850Y63284D01*
X860850Y63716D01*
X860918Y64144D01*
X861051Y64556D01*
X861248Y64941D01*
X861502Y65292D01*
X861809Y65598D01*
X862159Y65852D01*
X862544Y66049D01*
X862956Y66182D01*
X863384Y66250D01*
X863816Y66250D01*
X864244Y66182D01*
X864656Y66049D01*
X865041Y65852D01*
X865392Y65598D01*
X865698Y65292D01*
X865952Y64941D01*
X866149Y64556D01*
X866282Y64144D01*
X866350Y63716D01*
X866350Y63284D01*
X967950Y63284D02*
X967882Y62856D01*
X967749Y62444D01*
X967552Y62059D01*
X967298Y61709D01*
X966992Y61402D01*
X966641Y61148D01*
X966256Y60951D01*
X965844Y60818D01*
X965416Y60750D01*
X964984Y60750D01*
X964556Y60818D01*
X964144Y60951D01*
X963759Y61148D01*
X963409Y61402D01*
X963102Y61709D01*
X962848Y62059D01*
X962651Y62444D01*
X962518Y62856D01*
X962450Y63284D01*
X962450Y63716D01*
X962518Y64144D01*
X962651Y64556D01*
X962848Y64941D01*
X963102Y65292D01*
X963409Y65598D01*
X963759Y65852D01*
X964144Y66049D01*
X964556Y66182D01*
X964984Y66250D01*
X965416Y66250D01*
X965844Y66182D01*
X966256Y66049D01*
X966641Y65852D01*
X966992Y65598D01*
X967298Y65292D01*
X967552Y64941D01*
X967749Y64556D01*
X967882Y64144D01*
X967950Y63716D01*
X967950Y63284D01*
M02*
